<svg xmlns="http://www.w3.org/2000/svg" width="143.862" height="50.23" viewBox="0 0 143.862 50.23">
    <g transform="translate(-259.713 -211.246)">
        <g transform="translate(312.418 225.714)">
            <g transform="translate(0 0)"><path d="M418.023,263.086v9.122H413.4V263.8c0-2.577-1.185-3.761-3.228-3.761-2.221,0-3.821,1.362-3.821,4.294v7.878h-4.62V250.232l4.62,1.856v5.845a7,7,0,0,1,5.064-1.9C415.18,256.037,418.023,258.229,418.023,263.086Z" transform="translate(-401.734 -250.232)" fill="#37899A"/><path d="M469.924,266.111v15.933h-2.577a1.836,1.836,0,0,1-1.836-1.836h0a6.13,6.13,0,0,1-4.975,2.073c-4.5,0-7.967-3.2-7.967-8.2s3.465-8.2,7.967-8.2A6.121,6.121,0,0,1,465.3,267.8v-1.688Zm-4.531,7.967c0-2.754-1.777-4.413-4.058-4.413-2.31,0-4.087,1.658-4.087,4.413s1.777,4.413,4.087,4.413C463.616,278.49,465.393,276.832,465.393,274.078Z" transform="translate(-433.704 -260.069)" fill="#37899A"/><path d="M522.09,278.892v3.554H507.874v-2.784l8.115-9.6h-7.907v-3.554h13.742V269.3l-8.115,9.6Z" transform="translate(-468.485 -260.471)" fill="#37899A"/><path d="M555.757,266.513l4.62,1.856v14.078h-4.62Z" transform="translate(-498.598 -260.471)" fill="#37899A"/><path d="M596.068,272.923v9.122h-4.62v-8.411c0-2.577-1.185-3.761-3.228-3.761-2.221,0-3.821,1.362-3.821,4.294v7.878h-4.62V266.111h4.413v1.866a6.976,6.976,0,0,1,5.272-2.1C593.224,265.874,596.068,268.066,596.068,272.923Z" transform="translate(-513.706 -260.069)" fill="#37899A"/><path d="M634.924,266.513l4.62,1.856v14.078h-4.62Z" transform="translate(-548.386 -260.471)" fill="#37899A"/></g>
        </g>
        <g transform="translate(259.713 211.246)"><path d="M268.618,259.117V230.655L261.093,235a2.76,2.76,0,0,0-1.38,2.39v22.355a2.76,2.76,0,0,0,1.38,2.39l19.36,11.177a2.759,2.759,0,0,0,2.76,0l4.673-2.7v-19.65H275.78v12.287Z" transform="translate(-259.713 -223.452)" fill="#37899A"/><path d="M322.276,225.811v28.463l7.525-4.345a2.759,2.759,0,0,0,1.38-2.39V225.184a2.759,2.759,0,0,0-1.38-2.39l-19.36-11.177a2.759,2.759,0,0,0-2.76,0l-4.673,2.7v19.231h12.105V221.675Z" transform="translate(-286.942 -211.246)" fill="#37899A"/></g>
    </g>
</svg>
